<?xml version="1.0" encoding="utf-8"?>
<!-- Generator: Adobe Illustrator 19.1.0, SVG Export Plug-In . SVG Version: 6.00 Build 0)  -->
<svg version="1.1"
	 id="svg2" sodipodi:version="0.32" sodipodi:docname="Throat_anatomy_diagram.svg" inkscape:version="0.48.4 r9939" xmlns:inkscape="http://www.inkscape.org/namespaces/inkscape" xmlns:sodipodi="http://sodipodi.sourceforge.net/DTD/sodipodi-0.dtd" xmlns:svg="http://www.w3.org/2000/svg" xmlns:rdf="http://www.w3.org/1999/02/22-rdf-syntax-ns#" xmlns:dc="http://purl.org/dc/elements/1.1/" xmlns:cc="http://creativecommons.org/ns#"
	 xmlns="http://www.w3.org/2000/svg" xmlns:xlink="http://www.w3.org/1999/xlink" x="0px" y="0px" viewBox="-29 -76.9 783 747.2"
	 style="enable-background:new -29 -76.9 783 747.2;" xml:space="preserve">
<style type="text/css">
	.st0{fill:url(#path2116_1_);stroke:#000000;stroke-width:2;}
	.st1{opacity:0.75;fill:none;stroke:#000000;stroke-linejoin:round;enable-background:new    ;}
	.st2{fill:url(#path2287_1_);stroke:#000000;}
</style>
<sodipodi:namedview  inkscape:current-layer="g2118" inkscape:window-maximized="1" inkscape:window-y="-8" inkscape:window-x="-8" inkscape:window-height="962" inkscape:window-width="1280" inkscape:pageshadow="2" inkscape:pageopacity="0" bordercolor="#666666" id="namedview3387" pagecolor="#ffffff" objecttolerance="10" gridtolerance="10" borderopacity="1" guidetolerance="10" inkscape:cy="373.57501" inkscape:zoom="0.99712237" showgrid="false" inkscape:cx="391.5">
	</sodipodi:namedview>
<g id="layer1" transform="translate(-753.4052,-294.8229)" inkscape:groupmode="layer" inkscape:label="Layer 1">
	
		<linearGradient id="path2116_1_" gradientUnits="userSpaceOnUse" x1="688.0321" y1="1155.6198" x2="1311.4041" y2="1155.6198" gradientTransform="matrix(-0.3754 0 0 0.3754 1568.1495 171.3344)">
		<stop  offset="0" style="stop-color:#EAC6C9"/>
		<stop  offset="1" style="stop-color:#EAC6C9;stop-opacity:0"/>
	</linearGradient>
	<path id="path2116" sodipodi:nodetypes="ccccccccccsssccccccc" class="st0" d="M1149.4,830c5.8-15.9,18.8-28.6,36.5-27.8
		c34.1,6.5,84.1-1.2,71.2-44.6c-1.7-14.4,9.2-13.9,10.4-22.3c0.4-2.8-0.7-5.7-0.2-8.6c0.3-1.9,5.2-8.4,5.2-8.4
		c-2.5-39.5,20.4-34.5,30-42.2c25.3-20.3-36.1-64.8-30.3-101c12.3-47.9-4.4-85.9-26.3-123.9c-25.8-42.6-65.3-67.1-134.8-70.7
		c-43.9-2.2-83,6.5-118.7,25.6c-69.4,37.3-70.4,120.5-55,188.7c14.3,63.1,35.1,66.5,41.2,104.3C983.7,745,966.8,830,966.8,830
		S1081.4,830,1149.4,830z"/>
	<path id="path2136" sodipodi:nodetypes="ccccccccccccc" class="st1" d="M1131.5,675.3c2.8,8.6,4.3,5.7,3.7,1.4
		c0.3-13.3,26.6-26.6,45.1-23.9c18.3,5.2,37.6,5.1,56,10.2c9.7,1.8,17.4,8,25.7,12.7c11.1,7.5,27.1-0.2,30.3-12.6
		c3.2-18.5-6.7-36-17-50.5c-7.5-7.9-10.4-18.8-16.4-27.7c-8.5-7.8-18.3-14.6-29.4-18.1c-18.6-1-37.5-3.1-56,0.4
		c-8.4,4.8-17.8,8-25,14.5c-15.9,18.7-24.4,39.5-35.2,61.4C1118.9,655.2,1125.9,662.9,1131.5,675.3z"/>
	
		<linearGradient id="path2287_1_" gradientUnits="userSpaceOnUse" x1="1060.6495" y1="1733.0492" x2="1042.1964" y2="1498.4324" gradientTransform="matrix(-0.3754 0 0 0.3754 1570.2501 171.2475)">
		<stop  offset="0" style="stop-color:#C46C70"/>
		<stop  offset="1" style="stop-color:#C46C70;stop-opacity:0"/>
	</linearGradient>
	<path id="path2287" class="st2" d="M1134.3,692.2c-0.3-10.6-3.1-18-8-27.3c-3.4-5.7-9.8-23-17.2-13.8c-0.1,11.2,0,22.4-0.2,33.6
		c-0.8,13.6,0.3,27.2-0.5,40.8c-1.9,9.3-4.2,17.7-2.1,28.6c1.1,9.1,13.6,8.5,13.6,15.7c0.9,15.1-2,27.3-9.3,40.7
		c-3.8,5.2-7.9,13.5-5.6,19.6c10.8,0,26.8,0,33.5,0c1-6.1,1.4-15.1,7.6-21.6c7.3-7.4,11-24.4,2.2-29.7c-13.8-8.8,7.4-9.6,6.5-16.7
		c-2.3-11.3-12.4,0.9-18.7-0.3c-8.5-9.2-10.8-22.5-10.1-34.6c-0.8-10.5,4.6-22.7,16.5-23.4c12.3,4.9,17.3-9,26.3-13.8
		c13.2-1.7,26.7-1.8,39.9,0c14.3,3.6,21.1,17.9,29.2,28.7c4.1,9.6,22.1,6.4,18.3-4.1c-9.3,0.2-15-6.7-16.2-15.8
		c-2-10.5-11.4-13-19-17.9c-8.1-5-18.7-7.6-28.7-8.5c-10-0.9-24.3-3.6-32.7,5.3c-5.8,7.3-9.3,18.6-19.3,18.9
		C1139.3,697.1,1134.2,696.8,1134.3,692.2z"/>
</g>
</svg>
