<svg xmlns="http://www.w3.org/2000/svg" viewBox="0 0 273.47 88.81"><defs><style>.a{fill:#ff6028;}.b{fill:#f23333;}.c{fill:#ffa133;}.d{fill:#ffbe20;}.e{fill:#ed1c24;}.f{fill:#fff;}.g{fill:#a7abff;}</style></defs><title>web-header-logo</title><path class="a" d="M43.83,47.73l9.4-.82a0.9,0.9,0,0,1,1,1.05L51,65.9a0.9,0.9,0,0,1-1.73.15L43.06,48.93A0.9,0.9,0,0,1,43.83,47.73Z" transform="translate(-28.13 -17.02)"/><path class="a" d="M29,75.82l-0.82-9.4a0.9,0.9,0,0,1,1.05-1l17.95,3.16a0.9,0.9,0,0,1,.15,1.73L30.16,76.59A0.9,0.9,0,0,1,29,75.82Z" transform="translate(-28.13 -17.02)"/><path class="b" d="M46,78.82l4-8.55A0.9,0.9,0,0,1,51.34,70l14,11.71a0.9,0.9,0,0,1-.73,1.57L46.62,80.09A0.9,0.9,0,0,1,46,78.82Z" transform="translate(-28.13 -17.02)"/><path class="b" d="M62.86,105.75l-8.55-4a0.9,0.9,0,0,1-.31-1.39l11.71-14a0.9,0.9,0,0,1,1.57.73l-3.16,17.95A0.9,0.9,0,0,1,62.86,105.75Z" transform="translate(-28.13 -17.02)"/><path class="a" d="M74,92.52l-5.41-7.73A0.9,0.9,0,0,1,69,83.43L86.1,77.2a0.9,0.9,0,0,1,1,1.42l-11.71,14A0.9,0.9,0,0,1,74,92.52Z" transform="translate(-28.13 -17.02)"/><path class="a" d="M105.72,91.35L98,96.76a0.9,0.9,0,0,1-1.36-.43L90.4,79.21a0.9,0.9,0,0,1,1.42-1l14,11.71A0.9,0.9,0,0,1,105.72,91.35Z" transform="translate(-28.13 -17.02)"/><path class="c" d="M99.82,75.13l-9.4.82a0.9,0.9,0,0,1-1-1.05l3.16-17.95a0.9,0.9,0,0,1,1.73-.15l6.23,17.13A0.9,0.9,0,0,1,99.82,75.13Z" transform="translate(-28.13 -17.02)"/><path class="c" d="M114.68,47l0.82,9.4a0.9,0.9,0,0,1-1.05,1L96.51,54.23a0.9,0.9,0,0,1-.15-1.73l17.13-6.23A0.9,0.9,0,0,1,114.68,47Z" transform="translate(-28.13 -17.02)"/><path class="d" d="M97.68,44l-4,8.55a0.9,0.9,0,0,1-1.39.31l-14-11.71a0.9,0.9,0,0,1,.73-1.57L97,42.77A0.9,0.9,0,0,1,97.68,44Z" transform="translate(-28.13 -17.02)"/><path class="d" d="M80.78,17.11l8.55,4a0.9,0.9,0,0,1,.31,1.39l-11.71,14a0.9,0.9,0,0,1-1.57-.73l3.16-17.95A0.9,0.9,0,0,1,80.78,17.11Z" transform="translate(-28.13 -17.02)"/><path class="c" d="M69.69,30.33l5.41,7.73a0.9,0.9,0,0,1-.43,1.36L57.54,45.65a0.9,0.9,0,0,1-1-1.42l11.71-14A0.9,0.9,0,0,1,69.69,30.33Z" transform="translate(-28.13 -17.02)"/><path class="c" d="M37.92,31.5l7.73-5.41a0.9,0.9,0,0,1,1.36.43l6.23,17.13a0.9,0.9,0,0,1-1.42,1l-14-11.71A0.9,0.9,0,0,1,37.92,31.5Z" transform="translate(-28.13 -17.02)"/><circle class="e" cx="71.82" cy="61.43" r="14.41" transform="translate(-44.81 11.25) rotate(-20)"/><path class="f" d="M127.18,56.62s4,4.65,9.53,4.65c3,0,5.65-1.61,5.65-4.65,0-6.7-18.5-6.15-18.5-18.39,0-6.37,5.54-11.08,13.13-11.08,4.6,0,11.69,2.16,11.69,7.76v3.66h-6.54V36.78c0-1.83-2.6-3-5.21-3-3.32,0-5.76,1.72-5.76,4.21,0,6.7,18.51,5.37,18.51,18.28,0,6.26-4.82,11.58-13.08,11.58a18.12,18.12,0,0,1-13.52-6.09Z" transform="translate(-28.13 -17.02)"/><path class="f" d="M153.67,46.09a1.08,1.08,0,0,0-1.22-1.22h-2.22v-6h6.7c2.6,0,3.71,1.16,3.71,3.71v13c0,3.44.89,5.76,4.38,5.76,5.1,0,7.92-4.49,7.92-9.53v-13h7V60a1.11,1.11,0,0,0,1.22,1.22h2.22v5.93h-6.48c-2.44,0-3.71-1.16-3.71-3.16V63.21c0-.67.06-1.27,0.06-1.27h-0.11a10.67,10.67,0,0,1-9.75,5.87c-6,0-9.75-3-9.75-10.75v-11Z" transform="translate(-28.13 -17.02)"/><path class="f" d="M187.41,46.09a1.08,1.08,0,0,0-1.22-1.22H184v-6h6.48c2.49,0,3.71,1.16,3.71,3.16v0.83a7.77,7.77,0,0,1-.11,1.22h0.11a10.86,10.86,0,0,1,10-5.87c6.26,0,9.86,3.27,9.86,10.75V60a1.11,1.11,0,0,0,1.22,1.22h2.22v5.93h-6.7c-2.66,0-3.77-1.11-3.77-3.77v-13c0-3.44-.89-5.76-4.43-5.76a7.75,7.75,0,0,0-7.59,5.76,11.9,11.9,0,0,0-.55,3.77v13h-7V46.09Z" transform="translate(-28.13 -17.02)"/><path class="f" d="M220.66,34h-3.6V27.81h18c7.37,0,12.52,5.15,12.52,12.8s-5.15,13-12.52,13h-7.15V67.15h-7.26V34Zm13.08,13.41c4.1,0,6.43-2.66,6.43-6.76S237.83,34,233.84,34h-5.93V47.37h5.82Z" transform="translate(-28.13 -17.02)"/><path class="f" d="M253.4,46.09a1.08,1.08,0,0,0-1.22-1.22H250v-6h6.43c2.49,0,3.77,1.05,3.77,3.44V44a12.83,12.83,0,0,1-.11,1.77h0.11c1.27-4,4.65-7.26,9-7.26a9,9,0,0,1,1.27.11v6.93a12.49,12.49,0,0,0-1.72-.11,8,8,0,0,0-7.7,5.93,17.07,17.07,0,0,0-.61,4.6V67.15h-7V46.09Z" transform="translate(-28.13 -17.02)"/><path class="f" d="M286.09,38.23c8.64,0,15.51,6.15,15.51,14.79s-6.87,14.79-15.51,14.79S270.63,61.72,270.63,53,277.5,38.23,286.09,38.23Zm0,23.6A8.41,8.41,0,0,0,294.51,53a8.4,8.4,0,1,0-16.79,0C277.73,58.28,281.55,61.83,286.09,61.83Z" transform="translate(-28.13 -17.02)"/><path class="g" d="M178.94,99.26a0.38,0.38,0,0,0-.33.17,11.91,11.91,0,0,0-2-.28h-5.71l-6.09.5-0.11-.11-1.27.33-0.5-.28L162,100l-0.61-.22-0.67.17a30.54,30.54,0,0,0-7.42,1.39,6.32,6.32,0,0,1-2.44-1.55,1.64,1.64,0,0,1-.55-0.17l0.11-.33c0.78-.67,2.11-2.16,3.21-2.16,0.17,0,.67.06,0.78,0.06,0.94,0,3.49-1.61,3.6-1.72a23.82,23.82,0,0,0,4.27-2.6,37.31,37.31,0,0,0,4-3.27V89.45A3.71,3.71,0,0,0,168,88.07a1.86,1.86,0,0,0,1-1.16c1.16-.61,2.16-2.33,2.88-3.32a2.33,2.33,0,0,0,.17-0.67,8,8,0,0,0,.5-0.72c0.22-.78.78-2.22,0.78-2.44s0.11-.72.11-1.16a1.7,1.7,0,0,1-.5-0.78c-0.55-.39-0.94-0.61-1.55-1-0.22-.11-0.66-0.11-1-0.28-0.44.05-1.11,0.05-1.72,0.11A8.37,8.37,0,0,0,166,78.32c-0.61,1.16-1.94,1.66-2.33,2.88a20.42,20.42,0,0,0-1.44,2.66,17.2,17.2,0,0,0-1.83,4c-0.44,1.22-.5,1.88-0.72,1.88a1.4,1.4,0,0,1-.44-0.78,3.52,3.52,0,0,1-1.16-1.11c-0.28,0-.11-0.61-0.17-0.78s-0.28-.33-0.44-0.28a4.12,4.12,0,0,1-.33-1.55,8.23,8.23,0,0,1,1.44-4.43,3.64,3.64,0,0,1,0-.78,1.9,1.9,0,0,1,1.05-.17c0.17-.22-0.06-0.39.11-0.55a13.51,13.51,0,0,1,1.61-1.5,4.88,4.88,0,0,1,.5-0.55c0.17-.11.5-0.11,0.67-0.22a7.1,7.1,0,0,1,.89-0.5c0.22-.11.5,0,0.72-0.11s0.33-.39.5-0.44a34.09,34.09,0,0,1,5.54-1.61h1.11c0.06-.06.17-0.06,0.22-0.11a0.41,0.41,0,0,1,.22-0.06h4.21c0.11,0.44,1.11.5,1.44,0.55a0.86,0.86,0,0,0,.39.55A3.1,3.1,0,0,1,179,77.15c-0.17.17,0.33,0.78,0.33,1a13.48,13.48,0,0,1-.39,1.77,4.87,4.87,0,0,1-.39.66c-0.22.83-1.05,1.83-.78,2.49-0.22.22-1.22,0.61-1.16,1-1.05.94-2.22,2.16-3,2.83a44.39,44.39,0,0,1-3.77,2.94,2.62,2.62,0,0,0-.28.55,4.35,4.35,0,0,1-.78.28,0.82,0.82,0,0,0-.33.72,3.12,3.12,0,0,0-.78-0.06c-0.61.39-4.71,3.49-4.71,4V96a5.07,5.07,0,0,0,.89.61l3.21,0.5,0.22-.22L167.53,97l1.77,0.22a2.73,2.73,0,0,0,.67-0.05,1.74,1.74,0,0,0,.55.28h3.21l5.6,0.78a14,14,0,0,1,.78,1.16C179.77,99.42,179.22,99.26,178.94,99.26Z" transform="translate(-28.13 -17.02)"/><path class="g" d="M185.53,86.9c0.33-.11.67-0.28,0.94-0.39a28.69,28.69,0,0,1,3-4c0.61-1,1.33-2,2-3a6.74,6.74,0,0,1,1.55-.72c0.33-.22.72-0.72,1.16-1.05a11.66,11.66,0,0,1,4.54-1.33,7.23,7.23,0,0,1,2,2.33,0.74,0.74,0,0,0,.22-0.17,0.5,0.5,0,0,1,.28-0.06c0.5,0.06.89,0.89,1.22,1.27l1.55-.11a2,2,0,0,1,.78.39c1.11,0.39,2.11,0,3.21,1.33,0.94,0.11,2.27,1.77,3,2.6,0.17,0.55.44,1.16,0.55,1.72-0.06.44-.17,1.27-0.22,1.55a3.24,3.24,0,0,1-.33.83,7.55,7.55,0,0,1-1,2.33,9.14,9.14,0,0,0-1.33,1.66A13.87,13.87,0,0,1,203,96.21c-2.16,1.88-5.93,3.1-8.2,3.71a15.43,15.43,0,0,1-3,.89,0.2,0.2,0,0,1-.17-0.05h-0.11a0.23,0.23,0,0,0-.17.17,9.64,9.64,0,0,1-1.77.17,7,7,0,0,1-1.55,0,3.67,3.67,0,0,1-1.22-.22,2.85,2.85,0,0,0-.61-0.22c-0.17,0-.06.11-0.22,0.11a3.87,3.87,0,0,1-1.5-.78,0.19,0.19,0,0,0-.22.11c-0.61-.17-1.22-1.55-1.72-2a4.42,4.42,0,0,0-.17-1.44c-0.94-.11-1.55-1.77-2.27-2.66,0.06-.17,0-0.55.06-0.78a1.43,1.43,0,0,1,.39-0.89Zm22.94,0.22c0-.5-0.05-1.16-0.05-1.61S208,84.74,208,84.47a1.64,1.64,0,0,1-.44-0.89,6.61,6.61,0,0,1-1.16-.72,1.16,1.16,0,0,1-.78-0.17l-2.66.67h-0.39c-0.55-.33-1.11-1.55-1.61-1.72,0-.05-0.11-0.05-0.28-0.05a42.16,42.16,0,0,0-6,1.44,6.41,6.41,0,0,0-1.38.66,5.22,5.22,0,0,1-2.16,2.6,1.35,1.35,0,0,1-.5,1.16,2.68,2.68,0,0,1-.83,1.77,14.31,14.31,0,0,1-1.11,3.16,1,1,0,0,1-.06,1.05,5.06,5.06,0,0,0,1.33,1.11,5.86,5.86,0,0,1,.83-0.11c0.17,0,.44.11,0.55,0.11l3-.78,0.22,0.33-0.06.22a12.78,12.78,0,0,0-1.27.78,5.37,5.37,0,0,0-1.88,1.5l-0.11.61a1.5,1.5,0,0,0,1.11.55l1.66-.22a2.65,2.65,0,0,1,.89.44,16,16,0,0,1,3.27-.78,36.75,36.75,0,0,0,5.65-2.6,4.35,4.35,0,0,1,1.22-.83c0.72-.78,1.44-1.5,2.16-2.27a1.66,1.66,0,0,1,.33-0.61,6.59,6.59,0,0,0,.72-1.77,3.61,3.61,0,0,0,.17-0.44C208.35,88.51,208.41,87.68,208.46,87.13ZM197,79.7l-1.61,1.72h0.28l2.27-.89A2.46,2.46,0,0,0,197,79.7Z" transform="translate(-28.13 -17.02)"/><path class="g" d="M226.64,95.16a5.4,5.4,0,0,0,1,.17l4.21-.06,4.71,0.33c0.61,0.83.55,1.16,0.28,1.27a1,1,0,0,0-.44.33,14.56,14.56,0,0,0-2-.11c-1.83,0-3.66.17-5.48,0.28a4.06,4.06,0,0,1,.28.5,1.21,1.21,0,0,1-.66.61c-1.05.28-2.22,0.66-3.27,0.89l-3.88-.5a23.42,23.42,0,0,0-4.1.72l-0.89.11-0.33.55h-0.89l-0.89.5-1,.05a8.82,8.82,0,0,1-1.11.39,12.8,12.8,0,0,1-5-2.16c0.72-.11,1.44-0.22,2.16-0.39l1.11-.33,1.38-.05,1.72-.67,1.33-.17,1.33-.44c0.94-.33,2-0.61,3.1-0.94a5.59,5.59,0,0,0,1-.5c0-.11-0.06-0.28-0.06-0.44a6.93,6.93,0,0,0,.94-0.72A22,22,0,0,1,222.88,92a0.63,0.63,0,0,0,.05-0.44,31.85,31.85,0,0,0,1.66-3.38A14.32,14.32,0,0,0,226,85.41a1.39,1.39,0,0,1,.39-0.44c0-.22-0.11-0.5-0.11-0.78a0.76,0.76,0,0,0,.28-0.44V83.41a1.73,1.73,0,0,0-1.22-.83c-1.55,0-5.49,2.22-5.93,2.88a7.49,7.49,0,0,1-1.27-.5V84.74a9.15,9.15,0,0,1,.89-1.33l4-1.66a0.6,0.6,0,0,0,.06-0.28L227,79.15l0.11,0.11L232.63,75l1.22,0.33,3.66-1.16a0.82,0.82,0,0,0,.28.33,18.53,18.53,0,0,1-.94,2,2.28,2.28,0,0,0-1.5,1c-0.33.28-.72,0.89-1.11,1.22a2.39,2.39,0,0,1-.28.67c-1.72,2.44-2.49,4.21-3.93,6.15-0.55,1-1.44,2.49-2.27,3.71-0.83,1.66-1.72,3.27-2.55,5a1.88,1.88,0,0,0,.33.17,1.16,1.16,0,0,0,.28.67A2.13,2.13,0,0,0,226.64,95.16Z" transform="translate(-28.13 -17.02)"/><path class="g" d="M248.22,87.07l0.22,0.11a3.17,3.17,0,0,1,1.16-.72c0.22-.11.33-0.28,0.55-0.39a1.62,1.62,0,0,1,.78-0.28,13.92,13.92,0,0,0,1.27-.61c1.11-.33,2.44-0.83,3.66-1.27a23.14,23.14,0,0,0,2.49-.61c0.33-.05.61,0,0.89-0.05a7.19,7.19,0,0,1,2-.28A3.4,3.4,0,0,1,262,83h0.66a0.4,0.4,0,0,0,.39.22,3,3,0,0,1,2.55,3.1,13.67,13.67,0,0,1-.66,2c-0.17.33-.72,0.89-1.05,1.44V89.9l-0.11.17a0.71,0.71,0,0,0-.33.22,5.11,5.11,0,0,0-.28.55c-0.39.5-.94,0.94-1.38,1.55a8.31,8.31,0,0,0-1.11.94,5.8,5.8,0,0,0-1.05.94c-0.55.33-1,.72-1.55,1.11a5.93,5.93,0,0,0-.39.61,8.68,8.68,0,0,1-1.27.28h-0.06L254,98l-0.17-.11a37.76,37.76,0,0,1-3.38,1.77c-1.22.28-2.49,0.89-3.71,1.05a2.62,2.62,0,0,1-.89.22c-0.17,0-1.33-.11-1.5-0.11l-0.17.06a0.8,0.8,0,0,1-.39.11,15.05,15.05,0,0,1-1.72-.17c-0.33-.11-0.67-0.22-1.05-0.33a4.83,4.83,0,0,0-.78-0.44c-0.33-.33-0.83-0.78-1.22-1.11a6,6,0,0,1-.39-1.33,0.62,0.62,0,0,1-.39-0.5,11.5,11.5,0,0,0-.28-1.33V95.49a2.78,2.78,0,0,1,1.61-1.88,7.65,7.65,0,0,0,.55-1.72l0.83-.67a2.37,2.37,0,0,1,.33-1,6.57,6.57,0,0,1,.83-1,5.16,5.16,0,0,1,1.22-1.66c0.28-.33.39-0.78,0.67-1.05,1.5-1.61,2.83-3.21,4.43-4.76a4,4,0,0,1,.61-0.83c2-1.94,4.27-3.82,6.48-5.65A14.8,14.8,0,0,0,258,73.11a1.71,1.71,0,0,1,.72-0.17,5,5,0,0,1,1.44-1.22,2.4,2.4,0,0,0,.55-0.5A7.9,7.9,0,0,0,262,70.5V70.45l0.11-.06h0.28a6.37,6.37,0,0,1,2.88-1.55,9.35,9.35,0,0,0,.78-0.55c0.72,0.11,1.44.11,1.94,0.17,0.33,0.05,1.5.39,1.61,0.39h0.22a4.21,4.21,0,0,0,.67-0.83,3.79,3.79,0,0,0,1.33-.55,1.23,1.23,0,0,0,.55-0.17,9,9,0,0,0,1.16-.17V67.9l-1.83,1.22a1,1,0,0,1-.11.55,1.89,1.89,0,0,0,.55.33,1,1,0,0,1-.11.55v0.17a20.1,20.1,0,0,0-6.87,5.76c-0.61.78-1.27,1.55-1.94,2.33-0.22.44-.55,1-0.83,1.66a2.61,2.61,0,0,1-.67.39h-0.39a1.18,1.18,0,0,1-.83-0.39c-0.33-.17-0.33-0.33.06-0.61l3.93-4.43a4.33,4.33,0,0,1-.61-0.44l-1.33-.17-1.5.28a1.33,1.33,0,0,1-.44.33c-0.28.11-.55,0.22-0.89,0.33-0.89.61-2.05,1.55-3,2.22s-1.72,1.44-2.49,2.11a5.87,5.87,0,0,1-1.44,1.61c-0.55.55-1.16,1.11-1.66,1.72a35.33,35.33,0,0,0-2.94,3.66h0.06Zm4.93,2.77a1.43,1.43,0,0,1-1.5.61h-0.17c-1.27.44-2.44,0.72-3.6,1.11a14.22,14.22,0,0,0-2.22,1.16,2.78,2.78,0,0,0-1.44,2.94,0.3,0.3,0,0,0-.11.17h-0.06c0,0.11.39,1,.67,1.66a7.34,7.34,0,0,1,1.05.78,6.88,6.88,0,0,0,1.39.11,11.06,11.06,0,0,0,1.27-.28,3.93,3.93,0,0,0,1.16-.22,22,22,0,0,0,4.6-2.16,2.33,2.33,0,0,1,.67-0.22c1.11-.89,2.22-1.61,3.21-2.49a7.52,7.52,0,0,1,.94-0.94,4.52,4.52,0,0,0,.78-1.44,1.19,1.19,0,0,0,.67-0.89c0.11-.11.44-0.33,0.5-0.39a3.2,3.2,0,0,0,.33-1.16l0.17-.22a0.66,0.66,0,0,0,.22-0.61,1.06,1.06,0,0,0-.67-1.05,4.82,4.82,0,0,1-.55-0.44c-0.39,0-.83-0.11-1.11-0.11a4.29,4.29,0,0,0-1.66.61c-0.28-.06-0.39-0.11-0.44-0.11L257,86.13H257a3.54,3.54,0,0,1-1,.33c-0.11,0-.39-0.06-0.44-0.06a1.58,1.58,0,0,1-1.05.33c-0.78.22-2.88,1.16-2.88,2V89a2.11,2.11,0,0,1,.72.5A1.15,1.15,0,0,1,253.15,89.84Z" transform="translate(-28.13 -17.02)"/></svg>