<?xml version="1.0" encoding="utf-8"?>
<!-- Generator: Adobe Illustrator 19.2.0, SVG Export Plug-In . SVG Version: 6.00 Build 0)  -->
<svg version="1.1" id="レイヤー_1" xmlns="http://www.w3.org/2000/svg" xmlns:xlink="http://www.w3.org/1999/xlink" x="0px"
	 y="0px" viewBox="0 0 960 400" style="enable-background:new 0 0 960 400;" xml:space="preserve">
<style type="text/css">
	.st0{fill:none;stroke:#000000;stroke-miterlimit:10;}
	.st1{font-family:'YuMincho-Regular';}
	.st2{font-size:24.5494px;}
	.st3{font-family:'NotoSansCJKjp-Regular-90ms-RKSJ-H';}
	.st4{font-size:12px;}
	.st5{font-family:'NotoSansCJKjp-Medium-90ms-RKSJ-H';}
	.st6{font-size:20.6476px;}
	.st7{fill:#FFFFFF;}
	.st8{fill:none;stroke:#000000;stroke-width:3;stroke-miterlimit:10;}
	.st9{font-size:21.6869px;}
	.st10{fill:none;stroke:#000000;stroke-width:2;stroke-miterlimit:10;}
	.st11{font-size:26.8769px;}
	.st12{font-size:14.4221px;}
</style>
<circle class="st0" cx="268.7" cy="129" r="14.6"/>
<text transform="matrix(1 0 0 1 22.999 79.2446)" class="st1 st2">ふるさと を   出で 来   し   子   等   の   相   会ひ て   よろこぶ に   まさる かなしみ は   なし</text>
<text transform="matrix(1 0 0 1 22.999 229.9113)" class="st1 st2">ふるさとを     出で来し       子等の         相会ひて       よろこぶに   まさる かなしみは    なし</text>
<line class="st0" x1="109" y1="53" x2="109" y2="153"/>
<line class="st0" x1="373.7" y1="53" x2="373.7" y2="153"/>
<line class="st0" x1="416" y1="53" x2="416" y2="238.3"/>
<line class="st0" x1="460.7" y1="53" x2="460.7" y2="153"/>
<line class="st0" x1="515.3" y1="53" x2="515.3" y2="153"/>
<line class="st0" x1="557.3" y1="53" x2="557.3" y2="238.3"/>
<line class="st0" x1="650" y1="53" x2="650" y2="153"/>
<line class="st0" x1="693.3" y1="53" x2="693.3" y2="238.3"/>
<line class="st0" x1="755.3" y1="53" x2="755.3" y2="238.3"/>
<line class="st0" x1="854.7" y1="53" x2="854.7" y2="153"/>
<line class="st0" x1="896.7" y1="53" x2="896.7" y2="238.3"/>
<line class="st0" x1="330" y1="53" x2="330" y2="153"/>
<line class="st0" x1="288.3" y1="53" x2="288.3" y2="238.3"/>
<line class="st0" x1="248" y1="53" x2="248" y2="153"/>
<line class="st0" x1="204" y1="53" x2="204" y2="153"/>
<line class="st0" x1="150.3" y1="53" x2="150.3" y2="238.3"/>
<text transform="matrix(1 0 0 1 117.333 100.4922)" class="st3 st4">助詞</text>
<text transform="matrix(1 0 0 1 382.6664 100.4922)" class="st3 st4">助詞</text>
<text transform="matrix(1 0 0 1 523.9997 100.4922)" class="st3 st4">助詞</text>
<text transform="matrix(1 0 0 1 863.333 100.4922)" class="st3 st4">助詞</text>
<text transform="matrix(1 0 0 1 659.333 100.4922)" class="st3 st4">助詞</text>
<text transform="matrix(1 0 0 1 249.9997 100.4922)" class="st3 st4">助動詞</text>
<text transform="matrix(1 0 0 1 902.9997 100.4922)" class="st3 st4">形容詞</text>
<text transform="matrix(1 0 0 1 333.6667 100.4922)" class="st3 st4">接尾辞</text>
<text transform="matrix(1 0 0 1 420 100.4922)" class="st3 st4">接頭辞</text>
<text transform="matrix(1 0 0 1 165.3333 100.4922)" class="st3 st4">動詞</text>
<text transform="matrix(1 0 0 1 475.3333 100.4922)" class="st3 st4">動詞</text>
<text transform="matrix(1 0 0 1 592 100.4922)" class="st3 st4">動詞</text>
<text transform="matrix(1 0 0 1 712.3333 100.4922)" class="st3 st4">動詞</text>
<text transform="matrix(1 0 0 1 214 100.4922)" class="st3 st4">動詞</text>
<text transform="matrix(1 0 0 1 53.3333 100.4922)" class="st3 st4">名詞</text>
<text transform="matrix(1 0 0 1 258.3633 136.1045)" class="st5 st6">付</text>
<circle class="st0" cx="351.8" cy="129" r="14.6"/>
<text transform="matrix(1 0 0 1 341.5094 136.1045)" class="st5 st6">付</text>
<circle class="st0" cx="394.7" cy="129" r="14.6"/>
<text transform="matrix(1 0 0 1 384.3424 136.1045)" class="st5 st6">付</text>
<circle class="st0" cx="438.3" cy="129" r="14.6"/>
<text transform="matrix(1 0 0 1 428.0094 136.1045)" class="st5 st6">付</text>
<circle class="st0" cx="536.3" cy="129" r="14.6"/>
<text transform="matrix(1 0 0 1 526.0094 136.1045)" class="st5 st6">付</text>
<circle class="st0" cx="671.3" cy="129" r="14.6"/>
<text transform="matrix(1 0 0 1 661.009 136.1045)" class="st5 st6">付</text>
<circle class="st0" cx="875.7" cy="129" r="14.6"/>
<text transform="matrix(1 0 0 1 865.3427 136.1045)" class="st5 st6">付</text>
<circle class="st0" cx="129.7" cy="129" r="14.6"/>
<text transform="matrix(1 0 0 1 119.3427 136.1045)" class="st5 st6">付</text>
<circle cx="66.4" cy="129" r="14.6"/>
<text transform="matrix(1 0 0 1 56.0411 136.1045)" class="st7 st5 st6">自</text>
<circle cx="177.2" cy="129" r="14.6"/>
<text transform="matrix(1 0 0 1 166.8427 136.1045)" class="st7 st5 st6">自</text>
<circle cx="226" cy="129" r="14.6"/>
<text transform="matrix(1 0 0 1 215.6761 136.1045)" class="st7 st5 st6">自</text>
<circle cx="308.3" cy="129" r="14.6"/>
<text transform="matrix(1 0 0 1 298.0094 136.1045)" class="st7 st5 st6">自</text>
<circle cx="488" cy="129" r="14.6"/>
<text transform="matrix(1 0 0 1 477.6761 136.1045)" class="st7 st5 st6">自</text>
<circle cx="604" cy="129" r="14.6"/>
<text transform="matrix(1 0 0 1 593.676 136.1045)" class="st7 st5 st6">自</text>
<circle cx="724.3" cy="129" r="14.6"/>
<text transform="matrix(1 0 0 1 714.0094 136.1045)" class="st7 st5 st6">自</text>
<circle cx="805" cy="129" r="14.6"/>
<text transform="matrix(1 0 0 1 794.6761 136.1045)" class="st7 st5 st6">自</text>
<circle cx="921" cy="129" r="14.6"/>
<text transform="matrix(1 0 0 1 910.6758 136.1045)" class="st7 st5 st6">自</text>
<text transform="matrix(1 0 0 1 296.3333 100.4922)" class="st3 st4">名詞</text>
<text transform="matrix(1 0 0 1 793 100.4922)" class="st3 st4">名詞</text>
<g>
	<g>
		<line class="st8" x1="65.3" y1="153" x2="65.3" y2="175.6"/>
		<g>
			<polygon points="57.9,173.4 65.3,186.3 72.8,173.4 			"/>
		</g>
	</g>
</g>
<polyline class="st8" points="65.3,165 129.3,165 129.3,153 "/>
<g>
	<g>
		<line class="st8" x1="603.6" y1="153" x2="603.6" y2="175.6"/>
		<g>
			<polygon points="596.1,173.4 603.6,186.3 611.1,173.4 			"/>
		</g>
	</g>
</g>
<g>
	<g>
		<line class="st8" x1="724.3" y1="153" x2="724.3" y2="175.6"/>
		<g>
			<polygon points="716.9,173.4 724.3,186.3 731.8,173.4 			"/>
		</g>
	</g>
</g>
<g>
	<g>
		<line class="st8" x1="921" y1="153" x2="921" y2="175.6"/>
		<g>
			<polygon points="913.5,173.4 921,186.3 928.5,173.4 			"/>
		</g>
	</g>
</g>
<polyline class="st8" points="603.6,165 671.3,165 671.3,153 "/>
<g>
	<g>
		<line class="st8" x1="804.7" y1="153" x2="804.7" y2="175.6"/>
		<g>
			<polygon points="797.2,173.4 804.7,186.3 812.1,173.4 			"/>
		</g>
	</g>
</g>
<polyline class="st8" points="804.7,165 875.7,165 875.7,153 "/>
<g>
	<g>
		<line class="st8" x1="176.3" y1="153" x2="176.3" y2="175.6"/>
		<g>
			<polygon points="168.8,173.4 176.3,186.3 183.8,173.4 			"/>
		</g>
	</g>
</g>
<polyline class="st8" points="176.3,165 226,165 226,153 "/>
<polyline class="st8" points="226,165 268.7,165 268.7,153 "/>
<g>
	<g>
		<line class="st8" x1="308" y1="153" x2="308" y2="175.6"/>
		<g>
			<polygon points="300.5,173.4 308,186.3 315.5,173.4 			"/>
		</g>
	</g>
</g>
<polyline class="st8" points="308,165 351.7,165 351.7,153 "/>
<polyline class="st8" points="351.7,165 394.4,165 394.4,153 "/>
<g>
	<g>
		<line class="st8" x1="488.6" y1="153" x2="488.6" y2="175.6"/>
		<g>
			<polygon points="481.1,173.4 488.6,186.3 496.1,173.4 			"/>
		</g>
	</g>
</g>
<polyline class="st8" points="488.6,165 536,165 536,153 "/>
<polyline class="st8" points="489.1,165 438,165 438,153 "/>
<text transform="matrix(1 0 0 1 68.3096 272.8574)" class="st5 st9">5音</text>
<text transform="matrix(1 0 0 1 202.9762 272.8574)" class="st5 st9">4音</text>
<text transform="matrix(1 0 0 1 334.8096 272.8574)" class="st5 st9">3音</text>
<text transform="matrix(1 0 0 1 470.3094 272.8574)" class="st5 st9">5音</text>
<text transform="matrix(1 0 0 1 610.9761 272.8574)" class="st5 st9">5音</text>
<text transform="matrix(1 0 0 1 707.3094 272.8574)" class="st5 st9">3音</text>
<text transform="matrix(1 0 0 1 811.3094 272.8574)" class="st5 st9">5音</text>
<text transform="matrix(1 0 0 1 903.9761 272.8574)" class="st5 st9">2音</text>
<polyline class="st10" points="149.3,277.7 139.3,296.3 31.7,296.3 23,277.7 "/>
<polyline class="st10" points="415.3,277.7 405.3,296.3 159,296.3 150.3,277.7 "/>
<polyline class="st10" points="556.8,277.7 546.8,296.3 425,296.3 416.3,277.7 "/>
<polyline class="st10" points="755.3,277.7 745.3,296.3 566.5,296.3 557.8,277.7 "/>
<polyline class="st10" points="943.4,277.7 933.4,296.3 764.6,296.3 755.9,277.7 "/>
<text transform="matrix(1 0 0 1 75.6743 333.4248)" class="st5 st11">5</text>
<text transform="matrix(1 0 0 1 274.6743 333.4248)" class="st5 st11">7</text>
<text transform="matrix(1 0 0 1 479.6737 333.4248)" class="st5 st11">5</text>
<text transform="matrix(1 0 0 1 649.0387 333.4248)" class="st5 st11">7</text>
<text transform="matrix(1 0 0 1 622.7344 352.4639)" class="st5 st12">(字余り１)</text>
<text transform="matrix(1 0 0 1 842.0071 333.4248)" class="st5 st11">7</text>
</svg>
