<?xml version="1.0" encoding="utf-8"?>
<!-- Generator: Adobe Illustrator 19.2.0, SVG Export Plug-In . SVG Version: 6.00 Build 0)  -->
<svg version="1.1" id="レイヤー_1" xmlns="http://www.w3.org/2000/svg" xmlns:xlink="http://www.w3.org/1999/xlink" x="0px"
	 y="0px" viewBox="0 0 960 560" style="enable-background:new 0 0 960 560;" xml:space="preserve">
<style type="text/css">
	.st0{font-family:'NotoSansCJKjp-Medium-90ms-RKSJ-H';}
	.st1{font-size:28.194px;}
	.st2{font-family:'YuMincho-Regular';}
	.st3{font-size:24.1px;}
	.st4{fill:#FFFFFF;stroke:#000000;stroke-miterlimit:10;}
	.st5{fill:none;stroke:#000000;stroke-width:4;stroke-miterlimit:10;}
	.st6{fill:none;stroke:#919191;stroke-width:4;stroke-miterlimit:10;}
	.st7{fill:#919191;}
</style>
<text transform="matrix(1 0 0 1 206.8256 528.2236)" class="st0 st1">出力</text>
<text transform="matrix(1 0 0 1 293.5078 527.7607)" class="st2 st3">うるみ/たる/目/に/つく/友/の/下/の/妻/かな</text>
<g>
	<ellipse class="st4" cx="426" cy="188.7" rx="34.5" ry="19.7"/>
	<text transform="matrix(1 0 0 1 413.9512 197.4732)" class="st2 st3">目</text>
</g>
<g>
	<ellipse class="st4" cx="580.5" cy="169" rx="34.5" ry="19.7"/>
	<text transform="matrix(1 0 0 1 568.4512 177.7589)" class="st2 st3">の</text>
</g>
<g>
	<ellipse class="st4" cx="357" cy="83.2" rx="34.5" ry="19.7"/>
	<text transform="matrix(1 0 0 1 344.9512 91.9504)" class="st2 st3">と</text>
</g>
<g>
	<ellipse class="st4" cx="284.7" cy="177.8" rx="34.5" ry="19.7"/>
	<text transform="matrix(1 0 0 1 260.5675 186.5197)" class="st2 st3">たる</text>
</g>
<g>
	<ellipse class="st4" cx="191.3" cy="270.8" rx="34.5" ry="19.7"/>
	<text transform="matrix(1 0 0 1 155.1844 279.5699)" class="st2 st3">うるみ</text>
</g>
<g>
	<ellipse class="st4" cx="737.3" cy="215.9" rx="34.5" ry="19.7"/>
	<text transform="matrix(1 0 0 1 725.2246 224.7101)" class="st2 st3">下</text>
</g>
<g>
	<ellipse class="st4" cx="658.6" cy="290.5" rx="34.5" ry="19.7"/>
	<text transform="matrix(1 0 0 1 634.5076 299.2842)" class="st2 st3">黒子</text>
</g>
<g>
	<ellipse class="st4" cx="534.8" cy="244.4" rx="34.5" ry="19.7"/>
	<text transform="matrix(1 0 0 1 522.7258 253.1386)" class="st2 st3">妻</text>
</g>
<g>
	<ellipse class="st4" cx="477.1" cy="319" rx="34.5" ry="19.7"/>
	<text transform="matrix(1 0 0 1 453.0088 327.7592)" class="st2 st3">かな</text>
</g>
<g>
	<ellipse class="st4" cx="572" cy="397.6" rx="34.5" ry="19.7"/>
	<text transform="matrix(1 0 0 1 547.9012 406.3318)" class="st2 st3">のみ</text>
</g>
<g>
	<ellipse class="st4" cx="432" cy="397.6" rx="34.5" ry="19.7"/>
	<text transform="matrix(1 0 0 1 407.9012 406.3318)" class="st2 st3">いつ</text>
</g>
<g>
	<ellipse class="st4" cx="344" cy="299.3" rx="34.5" ry="19.7"/>
	<text transform="matrix(1 0 0 1 331.9515 308.045)" class="st2 st3">も</text>
</g>
<g>
	<ellipse class="st4" cx="488.3" cy="79.9" rx="34.5" ry="19.7"/>
	<text transform="matrix(1 0 0 1 476.2849 88.7105)" class="st2 st3">に</text>
</g>
<g>
	<ellipse class="st4" cx="618.8" cy="52.5" rx="34.5" ry="19.7"/>
	<text transform="matrix(1 0 0 1 594.6743 61.2826)" class="st2 st3">つく</text>
</g>
<g>
	<ellipse class="st4" cx="718.6" cy="119.4" rx="34.5" ry="19.7"/>
	<text transform="matrix(1 0 0 1 706.5583 128.1391)" class="st2 st3">友</text>
</g>
<g>
	<line x1="210.3" y1="254.4" x2="262" y2="192.6"/>
	<g>
		<line class="st5" x1="210.3" y1="254.4" x2="252.8" y2="203.6"/>
		<g>
			<polygon points="258.6,212.3 262,192.6 243.3,199.5 			"/>
		</g>
	</g>
</g>
<g>
	<g>
		<line class="st5" x1="319.2" y1="177.8" x2="377.3" y2="186.6"/>
		<g>
			<polygon points="372.9,196 391.5,188.7 375.9,176.3 			"/>
		</g>
	</g>
</g>
<g>
	<g>
		<line class="st6" x1="460.5" y1="187.1" x2="533.6" y2="177.3"/>
		<g>
			<polygon class="st7" points="532.1,187.6 547.9,175.4 529.4,167.8 			"/>
		</g>
	</g>
</g>
<g>
	<g>
		<line class="st5" x1="514.7" y1="260.4" x2="496.3" y2="288.4"/>
		<g>
			<polygon points="489.5,280.5 488.3,300.4 506.2,291.5 			"/>
		</g>
	</g>
</g>
<g>
	<g>
		<line class="st5" x1="563.2" y1="186" x2="549.1" y2="212.5"/>
		<g>
			<polygon points="541.7,205.2 542.3,225.1 559.3,214.6 			"/>
		</g>
	</g>
</g>
<g>
	<g>
		<line class="st5" x1="685.8" y1="125.4" x2="622.4" y2="152.4"/>
		<g>
			<polygon points="621.2,142.1 609.2,158 629,160.5 			"/>
		</g>
	</g>
</g>
<g>
	<g>
		<line class="st5" x1="650.5" y1="60.2" x2="688.8" y2="93.5"/>
		<g>
			<polygon points="680.1,99.1 699.7,102.9 693.2,84.1 			"/>
		</g>
	</g>
</g>
<g>
	<g>
		<line class="st5" x1="521.5" y1="74.5" x2="570.8" y2="58.7"/>
		<g>
			<polygon points="571,69.1 584.4,54.3 564.9,50.1 			"/>
		</g>
	</g>
</g>
<g>
	<g>
		<line class="st5" x1="438.4" y1="170.3" x2="466.9" y2="110.6"/>
		<g>
			<polygon points="474.7,117.5 473.1,97.6 456.7,108.9 			"/>
		</g>
	</g>
</g>
<g>
	<g>
		<line class="st6" x1="350.4" y1="279.9" x2="401.6" y2="217.5"/>
		<g>
			<polygon class="st7" points="407.5,226.1 410.7,206.4 392.1,213.4 			"/>
		</g>
	</g>
</g>
<g>
	<g>
		<line class="st6" x1="404.6" y1="385.6" x2="362.1" y2="330.4"/>
		<g>
			<polygon class="st7" points="371.8,326.6 353.3,319 356,338.8 			"/>
		</g>
	</g>
</g>
<g>
	<g>
		<line class="st6" x1="537.5" y1="397.6" x2="480.9" y2="397.6"/>
		<g>
			<polygon class="st7" points="483.8,387.6 466.5,397.6 483.8,407.5 			"/>
		</g>
	</g>
</g>
<g>
	<g>
		<line class="st6" x1="649.4" y1="309.5" x2="602.6" y2="370.9"/>
		<g>
			<polygon class="st7" points="596.5,362.6 594,382.4 612.4,374.7 			"/>
		</g>
	</g>
</g>
<g>
	<g>
		<line class="st6" x1="589" y1="188.1" x2="638.8" y2="260.2"/>
		<g>
			<polygon class="st7" points="628.9,263.4 646.9,272 645.3,252.1 			"/>
		</g>
	</g>
</g>
<g>
	<g>
		<line class="st5" x1="702.8" y1="215.9" x2="619.9" y2="186.8"/>
		<g>
			<polygon points="626,178.4 606.4,182 619.4,197.2 			"/>
		</g>
	</g>
</g>
<g>
	<g>
		<line class="st5" x1="615" y1="167.5" x2="698.6" y2="197.6"/>
		<g>
			<polygon points="692.5,206 712.1,202.4 699.3,187.2 			"/>
		</g>
	</g>
</g>
<g>
	<g>
		<line class="st6" x1="379.3" y1="98.2" x2="415.2" y2="156.8"/>
		<g>
			<polygon class="st7" points="405.1,159.5 422.7,169 422.1,149.1 			"/>
		</g>
	</g>
</g>
<g>
	<g>
		<line class="st6" x1="401" y1="175.1" x2="364.5" y2="115.8"/>
		<g>
			<polygon class="st7" points="374.5,113.1 357,103.6 357.5,123.5 			"/>
		</g>
	</g>
</g>
<polygon points="512.4,450.6 495.6,467.3 495.6,435.8 486.9,435.8 486.9,467.3 470.2,450.6 470.2,462.9 485.1,477.9 491.3,484 
	497.4,477.9 512.4,462.9 "/>
</svg>
