<?xml version="1.0" encoding="utf-8"?>
<!-- Generator: Adobe Illustrator 19.2.0, SVG Export Plug-In . SVG Version: 6.00 Build 0)  -->
<svg version="1.1" id="レイヤー_1" xmlns="http://www.w3.org/2000/svg" xmlns:xlink="http://www.w3.org/1999/xlink" x="0px"
	 y="0px" viewBox="0 0 960 560" style="enable-background:new 0 0 960 560;" xml:space="preserve">
<style type="text/css">
	.st0{font-family:'NotoSansCJKjp-Medium-90ms-RKSJ-H';}
	.st1{font-size:28.194px;}
	.st2{font-family:'YuMincho-Regular';}
	.st3{font-size:24.1px;}
	.st4{fill:#FFFFFF;stroke:#000000;stroke-miterlimit:10;}
	.st5{fill:none;stroke:#4E4E4E;stroke-width:4;stroke-miterlimit:10;}
	.st6{fill:#4E4E4E;}
</style>
<text transform="matrix(1 0 0 1 33.3188 62.2236)" class="st0 st1">入力</text>
<text transform="matrix(1 0 0 1 120.001 61.7607)" class="st2 st3">うるみ/たる/目/と/目/の/下/の/黒子/のみ/いつ/も/目/に/つく/友/の/妻/かな</text>
<g>
	<ellipse class="st4" cx="426" cy="274.8" rx="34.5" ry="19.7"/>
	<text transform="matrix(1 0 0 1 413.9512 283.5215)" class="st2 st3">目</text>
</g>
<g>
	<ellipse class="st4" cx="580.5" cy="255" rx="34.5" ry="19.7"/>
	<text transform="matrix(1 0 0 1 568.4512 263.8072)" class="st2 st3">の</text>
</g>
<g>
	<ellipse class="st4" cx="357" cy="169.2" rx="34.5" ry="19.7"/>
	<text transform="matrix(1 0 0 1 344.9512 177.9987)" class="st2 st3">と</text>
</g>
<g>
	<ellipse class="st4" cx="284.7" cy="263.8" rx="34.5" ry="19.7"/>
	<text transform="matrix(1 0 0 1 260.5675 272.5679)" class="st2 st3">たる</text>
</g>
<g>
	<ellipse class="st4" cx="191.3" cy="356.9" rx="34.5" ry="19.7"/>
	<text transform="matrix(1 0 0 1 155.1844 365.6182)" class="st2 st3">うるみ</text>
</g>
<g>
	<ellipse class="st4" cx="737.3" cy="302" rx="34.5" ry="19.7"/>
	<text transform="matrix(1 0 0 1 725.2246 310.7583)" class="st2 st3">下</text>
</g>
<g>
	<ellipse class="st4" cx="658.6" cy="376.6" rx="34.5" ry="19.7"/>
	<text transform="matrix(1 0 0 1 634.5076 385.3325)" class="st2 st3">黒子</text>
</g>
<g>
	<ellipse class="st4" cx="534.8" cy="330.4" rx="34.5" ry="19.7"/>
	<text transform="matrix(1 0 0 1 522.7258 339.1869)" class="st2 st3">妻</text>
</g>
<g>
	<ellipse class="st4" cx="477.1" cy="405" rx="34.5" ry="19.7"/>
	<text transform="matrix(1 0 0 1 453.0088 413.8075)" class="st2 st3">かな</text>
</g>
<g>
	<ellipse class="st4" cx="572" cy="483.6" rx="34.5" ry="19.7"/>
	<text transform="matrix(1 0 0 1 547.9012 492.3801)" class="st2 st3">のみ</text>
</g>
<g>
	<ellipse class="st4" cx="432" cy="483.6" rx="34.5" ry="19.7"/>
	<text transform="matrix(1 0 0 1 407.9012 492.3801)" class="st2 st3">いつ</text>
</g>
<g>
	<ellipse class="st4" cx="344" cy="385.3" rx="34.5" ry="19.7"/>
	<text transform="matrix(1 0 0 1 331.9515 394.0933)" class="st2 st3">も</text>
</g>
<g>
	<ellipse class="st4" cx="488.3" cy="166" rx="34.5" ry="19.7"/>
	<text transform="matrix(1 0 0 1 476.2849 174.7588)" class="st2 st3">に</text>
</g>
<g>
	<ellipse class="st4" cx="618.8" cy="138.6" rx="34.5" ry="19.7"/>
	<text transform="matrix(1 0 0 1 594.6743 147.3308)" class="st2 st3">つく</text>
</g>
<g>
	<ellipse class="st4" cx="718.6" cy="205.4" rx="34.5" ry="19.7"/>
	<text transform="matrix(1 0 0 1 706.5583 214.1873)" class="st2 st3">友</text>
</g>
<g>
	<g>
		<line x1="210.3" y1="340.4" x2="262" y2="278.7"/>
		<g>
			<line class="st5" x1="210.3" y1="340.4" x2="252.8" y2="289.7"/>
			<g>
				<polygon class="st6" points="258.6,298.3 262,278.7 243.3,285.5 				"/>
			</g>
		</g>
	</g>
	<g>
		<g>
			<line class="st5" x1="319.2" y1="263.8" x2="377.3" y2="272.6"/>
			<g>
				<polygon class="st6" points="372.9,282 391.5,274.8 375.9,262.3 				"/>
			</g>
		</g>
	</g>
	<g>
		<g>
			<line class="st5" x1="460.5" y1="273.2" x2="533.6" y2="263.3"/>
			<g>
				<polygon class="st6" points="532.1,273.6 547.9,261.4 529.4,253.8 				"/>
			</g>
		</g>
	</g>
	<g>
		<g>
			<line class="st5" x1="514.7" y1="346.5" x2="496.3" y2="374.4"/>
			<g>
				<polygon class="st6" points="489.5,366.5 488.3,386.4 506.2,377.5 				"/>
			</g>
		</g>
	</g>
	<g>
		<g>
			<line class="st5" x1="563.2" y1="272.1" x2="549.1" y2="298.5"/>
			<g>
				<polygon class="st6" points="541.7,291.3 542.3,311.2 559.3,300.6 				"/>
			</g>
		</g>
	</g>
	<g>
		<g>
			<line class="st5" x1="685.8" y1="211.5" x2="622.4" y2="238.5"/>
			<g>
				<polygon class="st6" points="621.2,228.2 609.2,244.1 629,246.5 				"/>
			</g>
		</g>
	</g>
	<g>
		<g>
			<line class="st5" x1="650.5" y1="146.3" x2="688.8" y2="179.5"/>
			<g>
				<polygon class="st6" points="680.1,185.2 699.7,189 693.2,170.1 				"/>
			</g>
		</g>
	</g>
	<g>
		<g>
			<line class="st5" x1="521.5" y1="160.6" x2="570.8" y2="144.8"/>
			<g>
				<polygon class="st6" points="571,155.1 584.4,140.4 564.9,136.2 				"/>
			</g>
		</g>
	</g>
	<g>
		<g>
			<line class="st5" x1="438.4" y1="256.4" x2="466.9" y2="196.6"/>
			<g>
				<polygon class="st6" points="474.7,203.6 473.1,183.7 456.7,195 				"/>
			</g>
		</g>
	</g>
	<g>
		<g>
			<line class="st5" x1="350.4" y1="366" x2="401.6" y2="303.5"/>
			<g>
				<polygon class="st6" points="407.5,312.1 410.7,292.4 392.1,299.5 				"/>
			</g>
		</g>
	</g>
	<g>
		<g>
			<line class="st5" x1="404.6" y1="471.7" x2="362.1" y2="416.4"/>
			<g>
				<polygon class="st6" points="371.8,412.7 353.3,405 356,424.8 				"/>
			</g>
		</g>
	</g>
	<g>
		<g>
			<line class="st5" x1="537.5" y1="483.6" x2="480.9" y2="483.6"/>
			<g>
				<polygon class="st6" points="483.8,473.6 466.5,483.6 483.8,493.6 				"/>
			</g>
		</g>
	</g>
	<g>
		<g>
			<line class="st5" x1="649.4" y1="395.6" x2="602.6" y2="457"/>
			<g>
				<polygon class="st6" points="596.5,448.6 594,468.4 612.4,460.7 				"/>
			</g>
		</g>
	</g>
	<g>
		<g>
			<line class="st5" x1="589" y1="274.2" x2="638.8" y2="346.2"/>
			<g>
				<polygon class="st6" points="628.9,349.5 646.9,358 645.3,338.1 				"/>
			</g>
		</g>
	</g>
	<g>
		<g>
			<line class="st5" x1="702.8" y1="302" x2="619.9" y2="272.8"/>
			<g>
				<polygon class="st6" points="626,264.4 606.4,268.1 619.4,283.2 				"/>
			</g>
		</g>
	</g>
	<g>
		<g>
			<line class="st5" x1="615" y1="253.5" x2="698.6" y2="283.6"/>
			<g>
				<polygon class="st6" points="692.5,292 712.1,288.5 699.3,273.3 				"/>
			</g>
		</g>
	</g>
	<g>
		<g>
			<line class="st5" x1="379.3" y1="184.3" x2="415.2" y2="242.8"/>
			<g>
				<polygon class="st6" points="405.1,245.5 422.7,255 422.1,235.1 				"/>
			</g>
		</g>
	</g>
	<g>
		<g>
			<line class="st5" x1="401" y1="261.2" x2="364.5" y2="201.9"/>
			<g>
				<polygon class="st6" points="374.5,199.1 357,189.6 357.5,209.6 				"/>
			</g>
		</g>
	</g>
</g>
</svg>
