<?xml version="1.0" encoding="utf-8"?>
<!-- Generator: Adobe Illustrator 19.2.0, SVG Export Plug-In . SVG Version: 6.00 Build 0)  -->
<svg version="1.1" id="レイヤー_1" xmlns="http://www.w3.org/2000/svg" xmlns:xlink="http://www.w3.org/1999/xlink" x="0px"
	 y="0px" viewBox="0 0 308.5 728.5" style="enable-background:new 0 0 308.5 728.5;" xml:space="preserve">
<style type="text/css">
	.st0{writing-mode:tb;}
	.st1{font-family:'FutoMinA101Pr6N-Bold-90ms-RKSJ-H';}
	.st2{font-size:38.8657px;glyph-orientation-vertical:0;}
	.st3{letter-spacing:15;}
	.st4{fill:none;stroke:#000000;stroke-width:2;stroke-miterlimit:10;}
	.st5{font-size:20.1255px;glyph-orientation-vertical:0;writing-mode:tb;}
	.st6{font-size:38.8657px;}
	.st7{letter-spacing:-3;}
</style>
<text transform="matrix(1 0 0 1 232.5068 45.2944)" class="st0"><tspan x="0" y="0" class="st1 st2 st3">大跨に緣側を步けば板軋む</tspan><tspan x="-83" y="0" class="st1 st2 st3">かへりけるかな　　</tspan><tspan x="-166.1" y="0" class="st1 st2 st3">　衜廣くなりき</tspan></text>
<line class="st4" x1="148.7" y1="417.2" x2="148.7" y2="520.5"/>
<text transform="matrix(1 0 0 1 263.0693 44.7178)" class="st1 st5">おほ</text>
<text transform="matrix(1 0 0 1 263.0693 100.0732)" class="st1 st5">また</text>
<text transform="matrix(1 0 0 1 96.4268 100.0732)" class="st1 st5">みち</text>
<text transform="matrix(1 0 0 1 96.4268 154.8521)" class="st1 st5">ひろ</text>
<text transform="matrix(1 0 0 1 263.0693 208.4775)" class="st1 st5">えん</text>
<text transform="matrix(1 0 0 1 263.0693 262.6797)" class="st1 st5">がわ</text>
<text transform="matrix(1 0 0 1 263.0693 371.084)" class="st1 st5">ある</text>
<text transform="matrix(1 0 0 1 263.0693 535.4209)" class="st1 st5">いた</text>
<text transform="matrix(1 0 0 1 263.0693 589.0459)" class="st1 st5">きし</text>
<text transform="matrix(1 0 0 1 243.2158 527.0977)" class="st1 st6 st7">、</text>
<text transform="matrix(1 0 0 1 243.2158 694.3174)" class="st1 st6 st7">。</text>
<text transform="matrix(1 0 0 1 74.8428 424.459)" class="st1 st6 st7">。</text>
</svg>
